# xmcd
#
# Track frame offsets:
#	150
#	17882
#	32522
#	49752
#	66285
#	83037
#	100770
#	115147
#	132385
#	148992
#
# Disc length: 2207 seconds
#
# Revision: 1
# Processed by: cddbd v1.5.1PL0 Copyright (c) Steve Scherf et al.
# Submitted via: audiograbber 1.83.01
#
DISCID=88089d0a
DTITLE=Dixie Chicks - Dixie Chicks
DYEAR=1900
DGENRE=
TTITLE0=Ready to Run
TTITLE1=There's Your Trouble
TTITLE2=Wide Open Spaces
TTITLE3=You Were Mine
TTITLE4=Tonight the Heartache's On Me
TTITLE5=Ready to Run (vocal)
TTITLE6=There's Your Trouble (vocal)
TTITLE7=Wide Open Spaces
TTITLE8=You Were Mine
TTITLE9=Tonight the Heartache's On Me
EXTD=
EXTT0=
EXTT1=
EXTT2=
EXTT3=
EXTT4=
EXTT5=
EXTT6=
EXTT7=
EXTT8=
EXTT9=
PLAYORDER=
